<svg width="75" height="75" viewBox="0 0 75 75" fill="none" xmlns="http://www.w3.org/2000/svg">
<mask id="mask0_28_7428" style="mask-type:alpha" maskUnits="userSpaceOnUse" x="0" y="0" width="75" height="75">
<rect width="74.4417" height="74.4417" fill="#D9D9D9"/>
</mask>
<g mask="url(#mask0_28_7428)">
<path d="M18.1451 53.0396C20.7815 51.0235 23.7282 49.4338 26.985 48.2707C30.2418 47.1075 33.6538 46.526 37.2208 46.526C40.7878 46.526 44.1997 47.1075 47.4565 48.2707C50.7133 49.4338 53.66 51.0235 56.2964 53.0396C58.1058 50.9201 59.5145 48.5163 60.5226 45.8281C61.5306 43.1399 62.0347 40.2708 62.0347 37.2208C62.0347 30.3452 59.6179 24.4907 54.7843 19.6572C49.9508 14.8236 44.0963 12.4068 37.2208 12.4068C30.3452 12.4068 24.4907 14.8236 19.6572 19.6572C14.8236 24.4907 12.4068 30.3452 12.4068 37.2208C12.4068 40.2708 12.9109 43.1399 13.9189 45.8281C14.927 48.5163 16.3357 50.9201 18.1451 53.0396ZM37.2208 40.3225C34.1707 40.3225 31.5989 39.2757 29.5052 37.182C27.4115 35.0883 26.3647 32.5164 26.3647 29.4664C26.3647 26.4164 27.4115 23.8445 29.5052 21.7508C31.5989 19.6572 34.1707 18.6103 37.2208 18.6103C40.2708 18.6103 42.8427 19.6572 44.9363 21.7508C47.03 23.8445 48.0768 26.4164 48.0768 29.4664C48.0768 32.5164 47.03 35.0883 44.9363 37.182C42.8427 39.2757 40.2708 40.3225 37.2208 40.3225ZM37.2208 68.2381C32.93 68.2381 28.8978 67.4239 25.124 65.7955C21.3502 64.1671 18.0675 61.9571 15.276 59.1656C12.4844 56.374 10.2744 53.0913 8.64599 49.3175C7.01758 45.5438 6.20337 41.5115 6.20337 37.2208C6.20337 32.93 7.01758 28.8978 8.64599 25.124C10.2744 21.3502 12.4844 18.0675 15.276 15.276C18.0675 12.4844 21.3502 10.2744 25.124 8.64599C28.8978 7.01758 32.93 6.20337 37.2208 6.20337C41.5115 6.20337 45.5438 7.01758 49.3175 8.64599C53.0913 10.2744 56.374 12.4844 59.1656 15.276C61.9571 18.0675 64.1671 21.3502 65.7955 25.124C67.4239 28.8978 68.2381 32.93 68.2381 37.2208C68.2381 41.5115 67.4239 45.5438 65.7955 49.3175C64.1671 53.0913 61.9571 56.374 59.1656 59.1656C56.374 61.9571 53.0913 64.1671 49.3175 65.7955C45.5438 67.4239 41.5115 68.2381 37.2208 68.2381Z" fill="white"/>
</g>
</svg>
