<?xml version="1.0" encoding="utf-8"?>
<!-- Generator: Adobe Illustrator 26.0.2, SVG Export Plug-In . SVG Version: 6.00 Build 0)  -->
<svg version="1.1" id="Layer_1" xmlns="http://www.w3.org/2000/svg" xmlns:xlink="http://www.w3.org/1999/xlink" x="0px" y="0px"
	 viewBox="0 0 51 56" style="enable-background:new 0 0 51 56;" xml:space="preserve">
<style type="text/css">
	.st0{fill:#FFFFFF;}
</style>
<path class="st0" d="M11.5,43.7h7.8V31.9c0-0.6,0.2-1.1,0.6-1.5c0.4-0.4,0.9-0.6,1.5-0.6h8.2c0.6,0,1.1,0.2,1.5,0.6s0.6,0.9,0.6,1.5
	v11.8h7.8V23c0-0.1,0-0.2-0.1-0.3c-0.1-0.1-0.1-0.2-0.2-0.3l-13.3-10c-0.1-0.1-0.3-0.2-0.4-0.2s-0.3,0.1-0.4,0.2l-13.3,10
	c-0.1,0.1-0.2,0.2-0.2,0.3c-0.1,0.1-0.1,0.2-0.1,0.3V43.7z M8,43.7V23c0-0.7,0.1-1.3,0.4-1.9c0.3-0.6,0.7-1.1,1.2-1.5L23,9.6
	c0.7-0.6,1.6-0.8,2.5-0.8c0.9,0,1.8,0.3,2.5,0.8l13.3,10c0.5,0.4,0.9,0.9,1.2,1.5c0.3,0.6,0.4,1.2,0.4,1.9v20.7c0,1-0.3,1.8-1,2.5
	c-0.7,0.7-1.5,1-2.5,1h-9.2c-0.6,0-1.1-0.2-1.5-0.6c-0.4-0.4-0.6-0.9-0.6-1.5V33.3h-5.4v11.8c0,0.6-0.2,1.1-0.6,1.5
	c-0.4,0.4-0.9,0.6-1.5,0.6h-9.2c-1,0-1.8-0.3-2.5-1C8.3,45.5,8,44.7,8,43.7z"/>
</svg>
