<svg width="84" height="84" viewBox="0 0 84 84" fill="none" xmlns="http://www.w3.org/2000/svg">
<mask id="mask0_295_9648" style="mask-type:alpha" maskUnits="userSpaceOnUse" x="0" y="0" width="84" height="84">
<rect width="84" height="84" fill="#D9D9D9"/>
</mask>
<g mask="url(#mask0_295_9648)">
<path d="M32.4589 49.27H37.8553V39.2931H46.145V49.27H51.5414V33.3335L42.0001 27.0089L32.4589 33.3335V49.27ZM42.0001 73.6691C49.6887 66.6945 55.3711 60.4005 59.0474 54.7872C62.7237 49.1739 64.5618 44.124 64.5618 39.6374C64.5618 32.8242 62.3769 27.2545 58.0071 22.928C53.6374 18.6016 48.3015 16.4384 41.9994 16.4384C35.6974 16.4384 30.3617 18.6016 25.9923 22.928C21.6231 27.2545 19.4384 32.8242 19.4384 39.6374C19.4384 44.124 21.3203 49.1704 25.0841 54.7767C28.8479 60.3831 34.4866 66.6806 42.0001 73.6691ZM41.9951 79.6896C41.3289 79.6896 40.668 79.5805 40.0124 79.3623C39.3568 79.1443 38.783 78.7949 38.2909 78.3142C35.7572 76.0697 33.0402 73.4967 30.14 70.5953C27.2399 67.6938 24.5543 64.5701 22.0834 61.2242C19.6125 57.8782 17.5604 54.3725 15.9271 50.7071C14.2937 47.0416 13.4771 43.3517 13.4771 39.6374C13.4771 30.7518 16.3457 23.6668 22.083 18.3825C27.8203 13.0982 34.4594 10.4561 42.0001 10.4561C49.5409 10.4561 56.1834 13.0982 61.9277 18.3825C67.672 23.6668 70.5442 30.7518 70.5442 39.6374C70.5442 43.3517 69.724 47.0416 68.0837 50.7071C66.4434 54.3725 64.3878 57.8782 61.9169 61.2242C59.4459 64.5701 56.7604 67.6938 53.8602 70.5953C50.96 73.4967 48.25 76.0697 45.7303 78.3142C45.2224 78.7949 44.6395 79.1443 43.9815 79.3624C43.3235 79.5805 42.6614 79.6896 41.9951 79.6896Z" fill="white"/>
</g>
</svg>
