<svg width="69" height="69" viewBox="0 0 69 69" fill="none" xmlns="http://www.w3.org/2000/svg">
<mask id="mask0_13_19182" style="mask-type:alpha" maskUnits="userSpaceOnUse" x="0" y="0" width="69" height="69">
<rect width="69" height="69" fill="#D9D9D9"/>
</mask>
<g mask="url(#mask0_13_19182)">
<path d="M25.875 23H43.125V17.25C43.125 14.8542 42.2865 12.8177 40.6094 11.1406C38.9323 9.46354 36.8958 8.625 34.5 8.625C32.1042 8.625 30.0677 9.46354 28.3906 11.1406C26.7135 12.8177 25.875 14.8542 25.875 17.25V23ZM35.2188 63.25H17.25C15.6687 63.25 14.3151 62.687 13.1891 61.5609C12.063 60.4349 11.5 59.0812 11.5 57.5V28.75C11.5 27.1688 12.063 25.8151 13.1891 24.6891C14.3151 23.563 15.6687 23 17.25 23H20.125V17.25C20.125 13.2729 21.5266 9.88281 24.3297 7.07969C27.1328 4.27656 30.5229 2.875 34.5 2.875C38.4771 2.875 41.8672 4.27656 44.6703 7.07969C47.4734 9.88281 48.875 13.2729 48.875 17.25V23H51.75C53.3312 23 54.6849 23.563 55.8109 24.6891C56.937 25.8151 57.5 27.1688 57.5 28.75V32.4875C56.6375 32.2 55.7391 31.9844 54.8047 31.8406C53.8703 31.6969 52.8521 31.625 51.75 31.625V28.75H17.25V57.5H32.4875C32.8708 58.65 33.2542 59.6443 33.6375 60.4828C34.0208 61.3214 34.5479 62.2438 35.2188 63.25ZM51.75 66.125C47.7729 66.125 44.3828 64.7234 41.5797 61.9203C38.7766 59.1172 37.375 55.7271 37.375 51.75C37.375 47.7729 38.7766 44.3828 41.5797 41.5797C44.3828 38.7766 47.7729 37.375 51.75 37.375C55.7271 37.375 59.1172 38.7766 61.9203 41.5797C64.7234 44.3828 66.125 47.7729 66.125 51.75C66.125 55.7271 64.7234 59.1172 61.9203 61.9203C59.1172 64.7234 55.7271 66.125 51.75 66.125ZM56.4938 58.5063L58.5063 56.4937L53.1875 51.175V43.125H50.3125V52.325L56.4938 58.5063Z" fill="white"/>
</g>
</svg>
