<svg width="64" height="64" viewBox="0 0 64 64" fill="none" xmlns="http://www.w3.org/2000/svg">
<mask id="mask0_13_19445" style="mask-type:alpha" maskUnits="userSpaceOnUse" x="0" y="0" width="64" height="64">
<rect width="64" height="64" fill="#D9D9D9"/>
</mask>
<g mask="url(#mask0_13_19445)">
<path d="M16 58.6667C14.5333 58.6667 13.2777 58.1445 12.2333 57.1001C11.1888 56.0556 10.6666 54.8001 10.6666 53.3334V26.6667C10.6666 25.2001 11.1888 23.9445 12.2333 22.9001C13.2777 21.8556 14.5333 21.3334 16 21.3334H18.6666V16.0001C18.6666 12.3112 19.9666 9.16675 22.5666 6.56675C25.1666 3.96675 28.3111 2.66675 32 2.66675C35.6888 2.66675 38.8333 3.96675 41.4333 6.56675C44.0333 9.16675 45.3333 12.3112 45.3333 16.0001V21.3334H48C49.4666 21.3334 50.7222 21.8556 51.7666 22.9001C52.8111 23.9445 53.3333 25.2001 53.3333 26.6667V53.3334C53.3333 54.8001 52.8111 56.0556 51.7666 57.1001C50.7222 58.1445 49.4666 58.6667 48 58.6667H16ZM32 45.3334C33.4666 45.3334 34.7222 44.8112 35.7666 43.7668C36.8111 42.7223 37.3333 41.4668 37.3333 40.0001C37.3333 38.5334 36.8111 37.2779 35.7666 36.2334C34.7222 35.189 33.4666 34.6667 32 34.6667C30.5333 34.6667 29.2777 35.189 28.2333 36.2334C27.1888 37.2779 26.6666 38.5334 26.6666 40.0001C26.6666 41.4668 27.1888 42.7223 28.2333 43.7668C29.2777 44.8112 30.5333 45.3334 32 45.3334ZM24 21.3334H40V16.0001C40 13.7779 39.2222 11.889 37.6666 10.3334C36.1111 8.77786 34.2222 8.00008 32 8.00008C29.7777 8.00008 27.8888 8.77786 26.3333 10.3334C24.7777 11.889 24 13.7779 24 16.0001V21.3334Z" fill="white"/>
</g>
</svg>
