<?xml version="1.0" encoding="utf-8"?>
<!-- Generator: Adobe Illustrator 26.0.2, SVG Export Plug-In . SVG Version: 6.00 Build 0)  -->
<svg version="1.1" id="Layer_1" xmlns="http://www.w3.org/2000/svg" xmlns:xlink="http://www.w3.org/1999/xlink" x="0px" y="0px"
	 viewBox="0 0 68.6 66" style="enable-background:new 0 0 68.6 66;" xml:space="preserve">
<style type="text/css">
	.st0{fill:#FFFFFF;}
</style>
<path class="st0" d="M52.8,37c0.9,0,1.8,0.1,2.7,0.2V29c0-1.4-0.6-2.8-1.6-3.8s-2.4-1.6-3.8-1.6h-2.7v-5.3C47.4,11,41.4,5,33.9,5
	c-7.5,0-13.5,6-13.5,13.3v5.3h-2.7c-1.4,0-2.8,0.6-3.8,1.6c-1,1-1.6,2.4-1.6,3.8v26.7c0,3,2.4,5.3,5.4,5.3h21.1
	c-1.4-2.3-2.2-5.1-2.2-8C36.6,44.2,43.9,37,52.8,37z M25.8,18.3c0-4.4,3.6-8,8.1-8c4.5,0,8.1,3.6,8.1,8v5.3H25.8V18.3z M33.9,47.7
	c-1.1,0-2.1-0.3-3-0.9c-0.9-0.6-1.6-1.4-2-2.4c-0.4-1-0.5-2-0.3-3.1c0.2-1,0.7-2,1.5-2.7c0.8-0.7,1.7-1.3,2.8-1.5
	c1-0.2,2.1-0.1,3.1,0.3c1,0.4,1.8,1.1,2.4,2c0.6,0.9,0.9,1.9,0.9,3C39.3,45.3,36.9,47.7,33.9,47.7z M62.3,48.3L49.5,61L42,53
	l3.1-3.1l4.3,4.2l9.7-9.6L62.3,48.3z"/>
</svg>
