<svg width="83" height="82" viewBox="0 0 83 82" fill="none" xmlns="http://www.w3.org/2000/svg">
<mask id="mask0_13_19164" style="mask-type:alpha" maskUnits="userSpaceOnUse" x="0" y="0" width="83" height="82">
<rect x="0.735352" width="82" height="82" fill="#D9D9D9"/>
</mask>
<g mask="url(#mask0_13_19164)">
<path d="M41.7353 75.1666C37.0089 75.1666 32.5672 74.2697 28.4103 72.476C24.2533 70.6822 20.6374 68.2478 17.5624 65.1728C14.4874 62.0978 12.053 58.4819 10.2592 54.3249C8.46548 50.168 7.5686 45.7263 7.5686 40.9999C7.5686 36.2735 8.46548 31.8319 10.2592 27.6749C12.053 23.518 14.4874 19.902 17.5624 16.827C20.6374 13.752 24.2533 11.3176 28.4103 9.52388C32.5672 7.73013 37.0089 6.83325 41.7353 6.83325C46.4617 6.83325 50.9033 7.73013 55.0603 9.52388C59.2172 11.3176 62.8332 13.752 65.9082 16.827C68.9832 19.902 71.4176 23.518 73.2113 27.6749C75.0051 31.8319 75.9019 36.2735 75.9019 40.9999V45.9541C75.9019 49.3138 74.7488 52.1753 72.4426 54.5385C70.1363 56.9017 67.3033 58.0833 63.9436 58.0833C61.9506 58.0833 60.0714 57.6562 58.3061 56.802C56.5408 55.9478 55.0603 54.7235 53.8644 53.1291C52.2131 54.7805 50.3481 56.019 48.2696 56.8447C46.1912 57.6704 44.0131 58.0833 41.7353 58.0833C37.0089 58.0833 32.9801 56.4176 29.6488 53.0864C26.3176 49.7551 24.6519 45.7263 24.6519 40.9999C24.6519 36.2735 26.3176 32.2447 29.6488 28.9135C32.9801 25.5822 37.0089 23.9166 41.7353 23.9166C46.4617 23.9166 50.4905 25.5822 53.8217 28.9135C57.153 32.2447 58.8186 36.2735 58.8186 40.9999V45.9541C58.8186 47.4346 59.3026 48.6874 60.2707 49.7124C61.2387 50.7374 62.4631 51.2499 63.9436 51.2499C65.4242 51.2499 66.6485 50.7374 67.6165 49.7124C68.5846 48.6874 69.0686 47.4346 69.0686 45.9541V40.9999C69.0686 33.3694 66.4207 26.9062 61.1249 21.6103C55.829 16.3145 49.3658 13.6666 41.7353 13.6666C34.1047 13.6666 27.6415 16.3145 22.3457 21.6103C17.0499 26.9062 14.4019 33.3694 14.4019 40.9999C14.4019 48.6305 17.0499 55.0937 22.3457 60.3895C27.6415 65.6853 34.1047 68.3333 41.7353 68.3333H58.8186V75.1666H41.7353ZM41.7353 51.2499C44.5825 51.2499 47.0026 50.2534 48.9957 48.2603C50.9887 46.2673 51.9853 43.8471 51.9853 40.9999C51.9853 38.1527 50.9887 35.7326 48.9957 33.7395C47.0026 31.7464 44.5825 30.7499 41.7353 30.7499C38.888 30.7499 36.4679 31.7464 34.4749 33.7395C32.4818 35.7326 31.4853 38.1527 31.4853 40.9999C31.4853 43.8471 32.4818 46.2673 34.4749 48.2603C36.4679 50.2534 38.888 51.2499 41.7353 51.2499Z" fill="white"/>
</g>
</svg>
