<svg width="103" height="103" viewBox="0 0 103 103" fill="none" xmlns="http://www.w3.org/2000/svg">
    <circle cx="51.5" cy="51.5" r="48.41" fill="#0A84FF" stroke="white" stroke-width="6.18"/>
    <mask id="mask0_151_10377" style="mask-type:alpha" maskUnits="userSpaceOnUse" x="17" y="16" width="70" height="70">
        <rect x="17" y="16" width="70" height="70" fill="#D9D9D9"/>
    </mask>
    <g mask="url(#mask0_151_10377)">
        <path d="M51.9997 81.1971C47.7304 81.1971 43.7527 80.4283 40.0668 78.8907C36.3807 77.3531 33.184 75.2305 30.4766 72.5231C27.7692 69.8157 25.6466 66.619 24.109 62.933C22.5715 59.247 21.8027 55.2693 21.8027 51C21.8027 46.7518 22.5715 42.7916 24.1091 39.1193C25.6467 35.447 27.7692 32.2503 30.4767 29.5292C33.1841 26.808 36.3808 24.6665 40.0668 23.1046C43.7528 21.5427 47.7305 20.7617 51.9998 20.7617C54.7516 20.7617 57.4236 21.1459 60.0158 21.9141C62.608 22.6824 65.0645 23.8105 67.3851 25.2984C68.0847 25.6387 68.5228 26.1966 68.6992 26.9723C68.8757 27.748 68.7283 28.4476 68.257 29.071C67.7857 29.722 67.1553 30.1199 66.3659 30.2647C65.5765 30.4095 64.8183 30.3118 64.0912 29.9715C62.2968 28.8513 60.3704 28.0059 58.3118 27.4352C56.2532 26.8646 54.1492 26.5793 51.9998 26.5793C45.0611 26.5793 39.2563 28.9078 34.5854 33.565C29.9144 38.2222 27.579 44.0338 27.579 51C27.579 57.9662 29.9144 63.7778 34.5853 68.435C39.2562 73.0922 45.061 75.4207 51.9997 75.4207C58.911 75.4207 64.7089 73.099 69.3935 68.4556C74.0781 63.8122 76.4205 58.0349 76.4205 51.1237C76.4205 50.3649 76.3909 49.6305 76.3316 48.9203C76.2725 48.2102 76.1594 47.5106 75.9924 46.8216C75.8952 45.9698 76.0543 45.2079 76.4696 44.5358C76.8849 43.8637 77.4941 43.4653 78.2973 43.3406C79.1216 43.1673 79.8766 43.3247 80.5625 43.813C81.2483 44.3012 81.6399 44.9575 81.7371 45.7817C81.8766 46.6166 81.9949 47.4688 82.0921 48.3385C82.1894 49.2082 82.238 50.0954 82.238 51C82.238 55.2693 81.457 59.247 79.8952 62.933C78.3332 66.619 76.1917 69.8157 73.4705 72.5231C70.7494 75.2305 67.5527 77.3531 63.8804 78.8907C60.2081 80.4282 56.2479 81.1971 51.9997 81.1971ZM47.6152 56.5638L76.0337 28.1041C76.6086 27.5567 77.2944 27.283 78.0912 27.283C78.888 27.283 79.5845 27.5567 80.1805 28.1041C80.7765 28.7276 81.0745 29.4378 81.0745 30.2346C81.0745 31.0314 80.7765 31.7278 80.1805 32.3239L49.6823 62.822C49.0799 63.3969 48.384 63.6844 47.5946 63.6844C46.8052 63.6844 46.123 63.3969 45.5481 62.822L37.1057 54.3066C36.5583 53.7592 36.2967 53.0818 36.321 52.2744C36.3453 51.4671 36.6312 50.776 37.1786 50.201C37.7535 49.6536 38.4515 49.3799 39.2726 49.3799C40.0937 49.3799 40.778 49.6536 41.3254 50.201L47.6152 56.5638Z"
              fill="white"/>
    </g>
</svg>
