<svg width="103" height="103" viewBox="0 0 103 103" fill="none" xmlns="http://www.w3.org/2000/svg">
<circle cx="51.5" cy="51.5" r="48.41" fill="#0A84FF" stroke="white" stroke-width="6.18"/>
<path d="M60.8792 72.7388C61.2381 72.1406 61.5073 71.4976 61.6867 70.8097C61.8811 70.1368 61.9783 69.419 61.9783 68.6563V35.9515H73.8221C74.9586 35.9515 75.8558 36.3253 76.5138 37.073C77.1868 37.8058 77.5232 38.7928 77.5232 40.034V68.6563C77.5232 69.8975 77.1868 70.8845 76.5138 71.6172C75.8558 72.3649 74.9586 72.7388 73.8221 72.7388H60.8792ZM67.0703 47.3017C67.0703 47.8401 67.3319 48.1092 67.8553 48.1092H71.5789C72.1023 48.1092 72.364 47.8401 72.364 47.3017V43.7127C72.364 43.1893 72.1023 42.9276 71.5789 42.9276H67.8553C67.3319 42.9276 67.0703 43.1893 67.0703 43.7127V47.3017ZM67.0703 56.1396C67.0703 56.663 67.3319 56.9247 67.8553 56.9247H71.5789C72.1023 56.9247 72.364 56.663 72.364 56.1396V52.5506C72.364 52.0272 72.1023 51.7655 71.5789 51.7655H67.8553C67.3319 51.7655 67.0703 52.0272 67.0703 52.5506V56.1396ZM67.0703 64.9776C67.0703 65.501 67.3319 65.7627 67.8553 65.7627H71.5789C72.1023 65.7627 72.364 65.501 72.364 64.9776V61.3886C72.364 60.8502 72.1023 60.581 71.5789 60.581H67.8553C67.3319 60.581 67.0703 60.8502 67.0703 61.3886V64.9776ZM24.72 68.6563V28.9978C24.72 27.7416 25.049 26.7472 25.707 26.0144C26.3799 25.2817 27.2921 24.9153 28.4436 24.9153H55.1817C56.3331 24.9153 57.2379 25.2817 57.8959 26.0144C58.5688 26.7472 58.9053 27.7416 58.9053 28.9978V68.6563C58.9053 69.8975 58.5688 70.8845 57.8959 71.6172C57.2379 72.3649 56.3331 72.7388 55.1817 72.7388H28.4436C27.2921 72.7388 26.3799 72.3649 25.707 71.6172C25.049 70.8845 24.72 69.8975 24.72 68.6563ZM34.0514 69.1274H49.7757V61.8372C49.7757 61.3138 49.6187 60.9026 49.3047 60.6035C49.0056 60.2894 48.5943 60.1324 48.0709 60.1324H35.7562C35.2477 60.1324 34.8365 60.2894 34.5225 60.6035C34.2084 60.9026 34.0514 61.3138 34.0514 61.8372V69.1274ZM33.3112 36.9609C33.3112 37.6039 33.6177 37.9254 34.2308 37.9254H38.7171C39.3601 37.9254 39.6816 37.6039 39.6816 36.9609V32.6092C39.6816 31.9662 39.3601 31.6447 38.7171 31.6447H34.2308C33.6177 31.6447 33.3112 31.9662 33.3112 32.6092V36.9609ZM44.1455 36.9609C44.1455 37.6039 44.4595 37.9254 45.0876 37.9254H49.5514C50.1944 37.9254 50.516 37.6039 50.516 36.9609V32.6092C50.516 31.9662 50.1944 31.6447 49.5514 31.6447H45.0876C44.4595 31.6447 44.1455 31.9662 44.1455 32.6092V36.9609ZM33.3112 46.1129C33.3112 46.7559 33.6177 47.0774 34.2308 47.0774H38.7171C39.3601 47.0774 39.6816 46.7559 39.6816 46.1129V41.7612C39.6816 41.1182 39.3601 40.7966 38.7171 40.7966H34.2308C33.6177 40.7966 33.3112 41.1182 33.3112 41.7612V46.1129ZM44.1455 46.1129C44.1455 46.7559 44.4595 47.0774 45.0876 47.0774H49.5514C50.1944 47.0774 50.516 46.7559 50.516 46.1129V41.7612C50.516 41.1182 50.1944 40.7966 49.5514 40.7966H45.0876C44.4595 40.7966 44.1455 41.1182 44.1455 41.7612V46.1129ZM33.3112 55.2648C33.3112 55.9079 33.6177 56.2294 34.2308 56.2294H38.7171C39.3601 56.2294 39.6816 55.9079 39.6816 55.2648V50.9132C39.6816 50.2701 39.3601 49.9486 38.7171 49.9486H34.2308C33.6177 49.9486 33.3112 50.2701 33.3112 50.9132V55.2648ZM44.1455 55.2648C44.1455 55.9079 44.4595 56.2294 45.0876 56.2294H49.5514C50.1944 56.2294 50.516 55.9079 50.516 55.2648V50.9132C50.516 50.2701 50.1944 49.9486 49.5514 49.9486H45.0876C44.4595 49.9486 44.1455 50.2701 44.1455 50.9132V55.2648Z" fill="white"/>
</svg>
